<svg xmlns="http://www.w3.org/2000/svg" width="58.547" height="56.456" viewBox="0 0 58.547 56.456"><g id="controls" transform="translate(0)"><path id="Path_65" fill="#fdfdfd" d="M8.364,42.9V2.045a1.045,1.045,0,0,0-2.091,0V42.9a7.318,7.318,0,1,0,2.091,0ZM7.318,55.365a5.227,5.227,0,1,1,5.227-5.227A5.233,5.233,0,0,1,7.318,55.365Z" data-name="Path 65" transform="translate(0 -1)"/><path id="Path_66" fill="#fdfdfd" d="M29.383,21.591V2.045a1.045,1.045,0,0,0-2.091,0V21.525a7.532,7.532,0,0,0,0,14.973V56.41a1.045,1.045,0,0,0,2.091,0V36.432a7.526,7.526,0,0,0,0-14.842ZM28.121,34.455a5.444,5.444,0,1,1,5.444-5.444A5.45,5.45,0,0,1,28.121,34.455Z" data-name="Path 66" transform="translate(0.936 -1)"/><path id="Path_67" fill="#fdfdfd" d="M56.637,8.318a7.318,7.318,0,1,0-8.364,7.235V56.41a1.045,1.045,0,0,0,2.091,0V15.553A7.323,7.323,0,0,0,56.637,8.318Zm-7.318,5.227a5.227,5.227,0,1,1,5.227-5.227A5.233,5.233,0,0,1,49.318,13.546Z" data-name="Path 67" transform="translate(1.91 -1)"/></g></svg>